<svg width="326" height="33" viewBox="0 0 326 33" fill="none" xmlns="http://www.w3.org/2000/svg">
<path d="M112.371 5.51919C112.423 6.00123 112.83 6.37692 113.325 6.37692H120.063L120.168 6.37127C120.649 6.31897 121.023 5.91022 121.023 5.41437V3.18137L121.017 3.07648C120.965 2.59418 120.558 2.21881 120.063 2.21881L116.973 2.21903L116.972 0.962552L116.966 0.857664C116.914 0.375365 116.507 0 116.012 0H113.325L113.22 0.00564739C112.74 0.0579014 112.366 0.466347 112.366 0.962552L112.365 5.41437L112.371 5.51919Z" fill="white"/>
<path d="M147.734 27.4808C147.682 26.9988 147.275 26.6231 146.78 26.6231H140.042L139.937 26.6287C139.457 26.681 139.082 27.0898 139.082 27.5856V29.8186L139.088 29.9235C139.14 30.4058 139.547 30.7812 140.042 30.7812L143.132 30.781L143.133 32.0374L143.139 32.1423C143.191 32.6246 143.598 33 144.093 33H146.78L146.885 32.9944C147.365 32.9421 147.74 32.5337 147.74 32.0374L147.74 27.5856L147.734 27.4808Z" fill="white"/>
<path d="M133.598 26.6468C134.077 26.6468 134.429 26.9665 134.477 27.4262L134.483 27.5346V30.1981C134.483 30.6784 134.165 31.0322 133.706 31.0803L133.598 31.0859H126.522C126.043 31.0859 125.69 30.7664 125.643 30.3066L125.637 30.1981V27.5346C125.637 27.0545 125.955 26.7005 126.413 26.6524L126.522 26.6468H133.598Z" fill="white"/>
<path d="M92.4517 2.56314C92.4037 2.1035 92.051 1.78379 91.5726 1.78379H88.4765L88.3685 1.78938C87.9105 1.83751 87.5919 2.19151 87.5919 2.67161V5.33507L87.5975 5.44358C87.6455 5.90334 87.9982 6.22289 88.4765 6.22289H91.5726L91.6807 6.2173C92.1387 6.1692 92.4572 5.81534 92.4572 5.33507V2.67161L92.4517 2.56314Z" fill="white"/>
<path d="M44.2367 6.22697C47.9051 6.22697 50.3264 8.58035 50.4257 12.2084L50.4288 12.4417V17.7686C50.4288 21.4505 48.084 23.8805 44.4691 23.9802L44.2367 23.9834H36.2753C35.7974 23.9834 35.4443 23.6634 35.3963 23.204L35.3907 23.0956V20.4321C35.3907 19.9522 35.7097 19.598 36.1673 19.5499L36.2753 19.5443H44.2367C45.3901 19.5443 45.9557 19.0267 46.0027 17.9228L46.0059 17.7686V12.4417C46.0059 11.2842 45.4905 10.7165 44.3903 10.6693L44.2367 10.6661H36.2753C35.7974 10.6661 35.4443 10.3459 35.3963 9.88663L35.3907 9.77825V7.11479C35.3907 6.63502 35.7097 6.28074 36.1673 6.23257L36.2753 6.22697H44.2367Z" fill="white"/>
<path fill-rule="evenodd" clip-rule="evenodd" d="M79.1867 24.0811C80.7914 24.0811 82.2631 23.5069 83.4105 22.5512L84.1974 23.6969C84.3626 23.9375 84.6345 24.0811 84.9248 24.0811H90.2122C92.2257 24.0811 94.0428 23.2336 95.3317 21.8732L96.5841 23.6969C96.7494 23.9375 97.0212 24.0811 97.3116 24.0811H102.599C104.348 24.0811 105.948 23.4418 107.183 22.3825L108.086 23.6969C108.251 23.9375 108.523 24.0811 108.814 24.0811H112.319C114.075 24.0811 115.682 23.4362 116.919 22.3686L117.831 23.6969C117.997 23.9375 118.268 24.0811 118.559 24.0811H119.41C121.254 24.0811 122.933 23.3702 124.193 22.2055L124.944 23.612C125.098 23.9009 125.398 24.0811 125.723 24.0811H131.83C133.575 24.0811 135.152 23.3535 136.278 22.1829L137.317 23.6969C137.483 23.9375 137.755 24.0811 138.045 24.0811H143.332C147.241 24.0811 150.41 20.8866 150.41 16.9459V11.5946C150.41 11.102 150.014 10.7027 149.526 10.7027H146.871C146.383 10.7027 145.987 11.102 145.987 11.5946V16.9459C145.987 18.4237 144.798 19.6216 143.332 19.6216H137.767C137.934 19.0564 138.024 18.4577 138.024 17.8378V11.5946C138.024 11.102 137.628 10.7027 137.139 10.7027H134.485C133.996 10.7027 133.6 11.102 133.6 11.5946V17.8378C133.6 18.823 132.808 19.6216 131.83 19.6216H126.522V11.5946C126.522 11.102 126.126 10.7027 125.637 10.7027H122.949C122.46 10.7027 122.064 11.102 122.064 11.5946V16.9459C122.064 18.4237 120.876 19.6216 119.41 19.6216H118.882C119.214 18.7953 119.397 17.8922 119.397 16.9459V11.5946C119.397 11.102 119.001 10.7027 118.512 10.7027H115.858C115.369 10.7027 114.973 11.102 114.973 11.5946V16.9459C114.973 18.4237 113.785 19.6216 112.319 19.6216H109.163C109.494 18.7953 109.677 17.8922 109.677 16.9459V11.5946C109.677 11.102 109.281 10.7027 108.792 10.7027H106.138C105.649 10.7027 105.253 11.102 105.253 11.5946V16.9459C105.253 18.4237 104.065 19.6216 102.599 19.6216H96.7758C97.1076 18.7953 97.2904 17.8922 97.2904 16.9459V11.5946C97.2904 11.102 96.8942 10.7027 96.4056 10.7027H93.7513C93.2626 10.7027 92.8665 11.102 92.8665 11.5946V16.9459C92.8665 18.4237 91.6782 19.6216 90.2122 19.6216H85.4448C85.6894 18.9242 85.8224 18.1737 85.8224 17.3919C85.8224 13.6976 82.8515 10.7027 79.1867 10.7027L75.143 10.7027C73.9192 8.57001 71.6318 7.13514 69.0118 7.13514C65.1027 7.13514 61.9337 10.3296 61.9337 14.2703V19.6216H60.1642C58.6982 19.6216 57.5099 18.4237 57.5099 16.9459V1.78379C57.5099 1.29121 57.1137 0.8919 56.6251 0.8919H53.9708C53.4822 0.8919 53.086 1.29121 53.086 1.78379V16.9459C53.086 20.8866 56.255 24.0811 60.1642 24.0811H79.1867ZM66.3575 14.2703C66.3575 12.7925 67.5459 11.5946 69.0118 11.5946C70.4778 11.5946 71.6661 12.7925 71.6661 14.2703V19.6216H66.3575V14.2703ZM76.09 19.6216V15.1622H79.1867C80.4083 15.1622 81.3986 16.1604 81.3986 17.3919C81.3986 18.6233 80.4083 19.6216 79.1867 19.6216H76.09Z" fill="white"/>
<path fill-rule="evenodd" clip-rule="evenodd" d="M184.916 24.973C181.007 24.973 177.838 21.7785 177.838 17.8378V2.67568C177.838 2.1831 178.234 1.78379 178.723 1.78379H181.377C181.866 1.78379 182.262 2.1831 182.262 2.67568V17.8378C182.262 19.3156 183.45 20.5135 184.916 20.5135H186.686V15.1622C186.686 11.2215 189.855 8.02703 193.764 8.02703C196.384 8.02703 198.671 9.4619 199.895 11.5946L203.939 11.5946C207.604 11.5946 210.575 14.5894 210.575 18.2838C210.575 21.9781 207.604 24.973 203.939 24.973H184.916ZM193.764 12.4865C192.298 12.4865 191.11 13.6844 191.11 15.1622V20.5135H196.418V15.1622C196.418 13.6844 195.23 12.4865 193.764 12.4865ZM200.842 20.5135H203.939C205.16 20.5135 206.151 19.5152 206.151 18.2838C206.151 17.0523 205.16 16.0541 203.939 16.0541H200.842V20.5135Z" fill="white"/>
<path fill-rule="evenodd" clip-rule="evenodd" d="M26.1006 24.973C29.7655 24.973 32.7364 21.9781 32.7364 18.2838C32.7364 14.5894 29.7655 11.5946 26.1006 11.5946L22.057 11.5946C20.8332 9.4619 18.5457 8.02703 15.9258 8.02703C12.0167 8.02703 8.84767 11.2215 8.84767 15.1622V20.5135H7.07814C5.61221 20.5135 4.42384 19.3156 4.42384 17.8378V2.67568C4.42384 2.1831 4.02771 1.78379 3.53907 1.78379H0.884767C0.396124 1.78379 0 2.1831 0 2.67568V17.8378C0 21.7785 3.16899 24.973 7.07814 24.973H26.1006ZM18.5801 20.5135H13.2715V15.1622C13.2715 13.6844 14.4599 12.4865 15.9258 12.4865C17.3917 12.4865 18.5801 13.6844 18.5801 15.1622V20.5135ZM26.1006 16.0541H23.0039V20.5135H26.1006C27.3222 20.5135 28.3125 19.5152 28.3125 18.2838C28.3125 17.0523 27.3222 16.0541 26.1006 16.0541Z" fill="white"/>
<path d="M317.634 7.13514C318.112 7.13514 318.465 7.45485 318.513 7.91449L318.518 8.02296V10.6864C318.518 11.1667 318.2 11.5205 317.742 11.5687L317.634 11.5742H310.557C310.078 11.5742 309.726 11.2547 309.678 10.7949L309.672 10.6864V8.02296C309.672 7.54286 309.991 7.18886 310.449 7.14073L310.557 7.13514H317.634Z" fill="white"/>
<path d="M263.653 28.428C263.605 27.9684 263.253 27.6486 262.774 27.6486H255.698L255.589 27.6542C255.131 27.7024 254.813 28.0564 254.813 28.5365V31.1999L254.819 31.3084C254.866 31.7682 255.219 32.0877 255.698 32.0877H262.774L262.882 32.0822C263.341 32.0341 263.659 31.6802 263.659 31.1999V28.5365L263.653 28.428Z" fill="white"/>
<path d="M281.798 8.50574e-06C282.276 8.50574e-06 282.629 0.319716 282.677 0.779356L282.682 0.887829V3.55129C282.682 4.03156 282.364 4.38542 281.906 4.43352L281.798 4.43911H278.702C278.223 4.43911 277.87 4.11955 277.822 3.65979L277.817 3.55129V0.887829C277.817 0.407725 278.135 0.053724 278.593 0.00560196L278.702 8.50574e-06H281.798Z" fill="white"/>
<path d="M297.718 0.779356C297.67 0.319716 297.317 8.50574e-06 296.839 8.50574e-06H293.743L293.634 0.00560196C293.176 0.053724 292.858 0.407725 292.858 0.887829V3.55129L292.863 3.65979C292.911 4.11955 293.264 4.43911 293.743 4.43911H296.839L296.947 4.43352C297.405 4.38542 297.723 4.03156 297.723 3.55129V0.887829L297.718 0.779356Z" fill="white"/>
<path d="M249.061 8.50574e-06C249.54 8.50574e-06 249.892 0.319716 249.94 0.779356L249.946 0.887829V3.55129C249.946 4.03156 249.627 4.38542 249.169 4.43352L249.061 4.43911H245.965C245.487 4.43911 245.134 4.11955 245.086 3.65979L245.081 3.55129V0.887829C245.081 0.407725 245.399 0.053724 245.857 0.00560196L245.965 8.50574e-06H249.061Z" fill="white"/>
<path fill-rule="evenodd" clip-rule="evenodd" d="M287.549 17.8378C287.549 18.784 287.367 19.6872 287.035 20.5135H301.702V13.8243C301.702 12.6087 300.696 11.5946 299.49 11.5946H290.644C290.08 11.5946 289.862 10.7109 290.202 10.2568L291.971 7.58109C292.294 7.15002 293.205 7.13514 293.74 7.13514H299.49C303.137 7.13514 305.97 9.89378 306.119 13.5242V20.5135H318.482C319.948 20.5135 321.136 19.3156 321.136 17.8378V12.4865C321.136 11.9939 321.533 11.5946 322.021 11.5946H324.676C325.164 11.5946 325.56 11.9939 325.56 12.4865V17.8378C325.56 21.7785 322.391 24.973 318.482 24.973H308.771C308.481 24.973 308.209 24.8294 308.043 24.5888L306.119 21.7862V24.1947C306.069 24.6529 305.716 24.973 305.24 24.973H267.187C266.897 24.973 266.625 24.8294 266.459 24.5888L265.557 23.2743C264.322 24.3337 262.721 24.973 260.972 24.973H253.915C253.625 24.973 253.353 24.8294 253.188 24.5888L252.298 23.2927C251.066 24.3411 249.473 24.973 247.735 24.973H220.307C216.398 24.973 213.229 21.7785 213.229 17.8378V12.4865C213.229 11.9939 213.625 11.5946 214.114 11.5946H216.768C217.257 11.5946 217.653 11.9939 217.653 12.4865V17.8378C217.653 19.3156 218.841 20.5135 220.307 20.5135H241.171C240.839 19.6872 240.657 18.784 240.657 17.8378V15.1622C240.657 11.2215 243.826 8.02703 247.735 8.02703C251.644 8.02703 254.813 11.2215 254.813 15.1622V17.8378C254.813 18.784 254.63 19.6872 254.298 20.5135H260.972C262.438 20.5135 263.627 19.3156 263.627 17.8378V12.4865C263.627 11.9939 264.023 11.5946 264.511 11.5946H267.166C267.654 11.5946 268.05 11.9939 268.05 12.4865V17.8378C268.05 18.784 267.868 19.6872 267.536 20.5135H273.908C273.576 19.6872 273.393 18.784 273.393 17.8378V15.1622C273.393 11.2215 276.562 8.02703 280.471 8.02703C284.38 8.02703 287.549 11.2215 287.549 15.1622V17.8378ZM283.125 15.1622V17.8378C283.125 19.3156 281.937 20.5135 280.471 20.5135C279.005 20.5135 277.817 19.3156 277.817 17.8378V15.1622C277.817 13.6844 279.005 12.4865 280.471 12.4865C281.937 12.4865 283.125 13.6844 283.125 15.1622ZM250.389 17.8378V15.1622C250.389 13.6844 249.201 12.4865 247.735 12.4865C246.269 12.4865 245.081 13.6844 245.081 15.1622V17.8378C245.081 19.3156 246.269 20.5135 247.735 20.5135C249.201 20.5135 250.389 19.3156 250.389 17.8378Z" fill="white"/>
<path fill-rule="evenodd" clip-rule="evenodd" d="M170.755 23.1892C170.755 28.3036 166.981 32.1081 161.909 32.1081H161.005C160.461 32.1081 159.947 31.8558 159.612 31.4239L157.719 28.9865C157.211 28.3679 157.365 27.6486 158.161 27.6486H161.909C163.973 27.6486 165.612 26.3807 166.146 24.5286C165.379 24.816 164.549 24.973 163.682 24.973C159.773 24.973 156.604 21.7785 156.604 17.8378V15.1622C156.604 11.2215 159.773 8.02703 163.682 8.02703C167.591 8.02703 170.76 11.2215 170.76 15.1622V23.1892H170.755ZM166.336 15.1622V17.8378C166.336 19.3156 165.148 20.5135 163.682 20.5135C162.216 20.5135 161.028 19.3156 161.028 17.8378V15.1622C161.028 13.6844 162.216 12.4865 163.682 12.4865C165.148 12.4865 166.336 13.6844 166.336 15.1622Z" fill="white"/>
</svg>
